<svg width="64" height="64" viewBox="0 0 64 64" fill="none" xmlns="http://www.w3.org/2000/svg">
<circle cx="32" cy="32" r="32" fill="#FF1B0A" fill-opacity="0.08"/>
<circle cx="32" cy="32" r="24" fill="#FF1B0A" fill-opacity="0.08"/>
<path d="M32 40.3333C32.4167 40.3333 32.7639 40.1944 33.0417 39.9167C33.3194 39.6389 33.4583 39.2917 33.4583 38.875C33.4583 38.4583 33.3194 38.1111 33.0417 37.8333C32.7639 37.5278 32.4167 37.375 32 37.375C31.5833 37.375 31.2361 37.5278 30.9583 37.8333C30.6806 38.1111 30.5417 38.4583 30.5417 38.875C30.5417 39.2917 30.6806 39.6389 30.9583 39.9167C31.2361 40.1944 31.5833 40.3333 32 40.3333ZM30.7083 33.875H33.4583V23.5H30.7083V33.875ZM32 48.6667C29.6944 48.6667 27.5278 48.2361 25.5 47.375C23.5 46.4861 21.7361 45.2917 20.2083 43.7917C18.7083 42.2639 17.5139 40.5 16.625 38.5C15.7639 36.4722 15.3333 34.3056 15.3333 32C15.3333 29.6944 15.7639 27.5278 16.625 25.5C17.5139 23.4722 18.7083 21.7083 20.2083 20.2083C21.7361 18.7083 23.5 17.5278 25.5 16.6667C27.5278 15.7778 29.6944 15.3333 32 15.3333C34.3056 15.3333 36.4722 15.7778 38.5 16.6667C40.5278 17.5278 42.2917 18.7083 43.7917 20.2083C45.2917 21.7083 46.4722 23.4722 47.3333 25.5C48.2222 27.5278 48.6667 29.6944 48.6667 32C48.6667 34.3056 48.2222 36.4722 47.3333 38.5C46.4722 40.5 45.2917 42.2639 43.7917 43.7917C42.2917 45.2917 40.5278 46.4861 38.5 47.375C36.4722 48.2361 34.3056 48.6667 32 48.6667ZM32 45.875C35.8611 45.875 39.1389 44.5278 41.8333 41.8333C44.5278 39.1389 45.875 35.8611 45.875 32C45.875 28.1389 44.5278 24.8611 41.8333 22.1667C39.1667 19.4722 35.8889 18.125 32 18.125C28.1389 18.125 24.8611 19.4722 22.1667 22.1667C19.4722 24.8333 18.125 28.1111 18.125 32C18.125 35.8611 19.4722 39.1389 22.1667 41.8333C24.8611 44.5278 28.1389 45.875 32 45.875Z" fill="#FF1B0A"/>
</svg>
